<mxfile host="app.diagrams.net" modified="2021-12-13T21:47:12.250Z" agent="5.0 (Windows NT 10.0; Win64; x64) AppleWebKit/537.36 (KHTML, like Gecko) Chrome/96.0.4664.93 Safari/537.36 Edg/96.0.1054.53" etag="NS4RBUAui4xjb9zAVxtb" version="15.9.4" type="github">
  <diagram id="C5RBs43oDa-KdzZeNtuy" name="Page-1">
    <mxGraphModel dx="1422" dy="804" grid="1" gridSize="10" guides="1" tooltips="1" connect="1" arrows="1" fold="1" page="1" pageScale="1" pageWidth="827" pageHeight="1169" math="0" shadow="0">
      <root>
        <mxCell id="WIyWlLk6GJQsqaUBKTNV-0" />
        <mxCell id="WIyWlLk6GJQsqaUBKTNV-1" parent="WIyWlLk6GJQsqaUBKTNV-0" />
        <mxCell id="pcqvXSmXdIOUs8JVoq0V-12" value="" style="group" parent="WIyWlLk6GJQsqaUBKTNV-1" vertex="1" connectable="0">
          <mxGeometry x="20" y="25" width="340" height="560" as="geometry" />
        </mxCell>
        <mxCell id="pcqvXSmXdIOUs8JVoq0V-10" value="&lt;b&gt;&lt;font style=&quot;font-size: 16px&quot;&gt;Authentication&lt;/font&gt;&lt;/b&gt;" style="text;html=1;strokeColor=none;fillColor=none;align=center;verticalAlign=middle;whiteSpace=wrap;rounded=0;fontSize=12;" parent="pcqvXSmXdIOUs8JVoq0V-12" vertex="1">
          <mxGeometry x="20" y="10" width="290" height="30" as="geometry" />
        </mxCell>
        <mxCell id="pcqvXSmXdIOUs8JVoq0V-11" value="" style="group" parent="pcqvXSmXdIOUs8JVoq0V-12" vertex="1" connectable="0">
          <mxGeometry y="50" width="340" height="510" as="geometry" />
        </mxCell>
        <mxCell id="WIyWlLk6GJQsqaUBKTNV-3" value="Login with Google or github on the Client" style="rounded=1;whiteSpace=wrap;html=1;fontSize=12;glass=0;strokeWidth=1;shadow=0;" parent="pcqvXSmXdIOUs8JVoq0V-11" vertex="1">
          <mxGeometry width="120" height="60" as="geometry" />
        </mxCell>
        <mxCell id="pcqvXSmXdIOUs8JVoq0V-0" value="Search for User&lt;br&gt;and validate token" style="rounded=1;whiteSpace=wrap;html=1;" parent="pcqvXSmXdIOUs8JVoq0V-11" vertex="1">
          <mxGeometry y="130" width="120" height="60" as="geometry" />
        </mxCell>
        <mxCell id="WIyWlLk6GJQsqaUBKTNV-2" value="" style="rounded=0;html=1;jettySize=auto;orthogonalLoop=1;fontSize=11;endArrow=block;endFill=0;endSize=8;strokeWidth=1;shadow=0;labelBackgroundColor=none;edgeStyle=orthogonalEdgeStyle;entryX=0.5;entryY=0;entryDx=0;entryDy=0;" parent="pcqvXSmXdIOUs8JVoq0V-11" source="WIyWlLk6GJQsqaUBKTNV-3" target="pcqvXSmXdIOUs8JVoq0V-0" edge="1">
          <mxGeometry relative="1" as="geometry">
            <mxPoint x="60" y="90" as="targetPoint" />
          </mxGeometry>
        </mxCell>
        <mxCell id="pcqvXSmXdIOUs8JVoq0V-1" value="Register?" style="rhombus;whiteSpace=wrap;html=1;" parent="pcqvXSmXdIOUs8JVoq0V-11" vertex="1">
          <mxGeometry x="5" y="230" width="110" height="100" as="geometry" />
        </mxCell>
        <mxCell id="pcqvXSmXdIOUs8JVoq0V-2" value="" style="edgeStyle=orthogonalEdgeStyle;rounded=0;orthogonalLoop=1;jettySize=auto;html=1;" parent="pcqvXSmXdIOUs8JVoq0V-11" source="pcqvXSmXdIOUs8JVoq0V-0" target="pcqvXSmXdIOUs8JVoq0V-1" edge="1">
          <mxGeometry relative="1" as="geometry" />
        </mxCell>
        <mxCell id="pcqvXSmXdIOUs8JVoq0V-3" value="Create a new User with default Values" style="rounded=1;whiteSpace=wrap;html=1;" parent="pcqvXSmXdIOUs8JVoq0V-11" vertex="1">
          <mxGeometry x="220" y="250" width="120" height="60" as="geometry" />
        </mxCell>
        <mxCell id="pcqvXSmXdIOUs8JVoq0V-4" value="No" style="edgeStyle=orthogonalEdgeStyle;rounded=0;orthogonalLoop=1;jettySize=auto;html=1;" parent="pcqvXSmXdIOUs8JVoq0V-11" source="pcqvXSmXdIOUs8JVoq0V-1" target="pcqvXSmXdIOUs8JVoq0V-3" edge="1">
          <mxGeometry relative="1" as="geometry">
            <Array as="points">
              <mxPoint x="140" y="280" />
              <mxPoint x="140" y="280" />
            </Array>
          </mxGeometry>
        </mxCell>
        <mxCell id="pcqvXSmXdIOUs8JVoq0V-7" value="Send Back the User" style="rounded=1;whiteSpace=wrap;html=1;" parent="pcqvXSmXdIOUs8JVoq0V-11" vertex="1">
          <mxGeometry y="450" width="120" height="60" as="geometry" />
        </mxCell>
        <mxCell id="pcqvXSmXdIOUs8JVoq0V-8" value="yes" style="edgeStyle=orthogonalEdgeStyle;rounded=0;orthogonalLoop=1;jettySize=auto;html=1;fontSize=12;" parent="pcqvXSmXdIOUs8JVoq0V-11" source="pcqvXSmXdIOUs8JVoq0V-1" target="pcqvXSmXdIOUs8JVoq0V-7" edge="1">
          <mxGeometry relative="1" as="geometry" />
        </mxCell>
        <mxCell id="pcqvXSmXdIOUs8JVoq0V-9" style="edgeStyle=orthogonalEdgeStyle;rounded=0;orthogonalLoop=1;jettySize=auto;html=1;exitX=0.5;exitY=1;exitDx=0;exitDy=0;entryX=1;entryY=0.5;entryDx=0;entryDy=0;fontSize=12;" parent="pcqvXSmXdIOUs8JVoq0V-11" source="pcqvXSmXdIOUs8JVoq0V-3" target="pcqvXSmXdIOUs8JVoq0V-7" edge="1">
          <mxGeometry relative="1" as="geometry" />
        </mxCell>
        <mxCell id="pcqvXSmXdIOUs8JVoq0V-13" value="&lt;font style=&quot;font-size: 11px&quot;&gt;Create Post Request&lt;/font&gt;" style="rounded=1;whiteSpace=wrap;html=1;fontSize=16;" parent="WIyWlLk6GJQsqaUBKTNV-1" vertex="1">
          <mxGeometry x="590" y="75" width="120" height="60" as="geometry" />
        </mxCell>
      </root>
    </mxGraphModel>
  </diagram>
</mxfile>
